<svg width="172" height="52" viewBox="0 0 172 52" fill="none" xmlns="http://www.w3.org/2000/svg">
<rect x="0.75" y="0.75" width="170.5" height="50.5" fill="#293D70" stroke="white" stroke-width="1.5"/>
<path d="M43.0249 18.592V19.086C42.4529 19.2247 41.8289 19.4933 41.1529 19.892C40.4769 20.2733 39.7576 20.8973 38.9949 21.764L34.1849 27.38L35.9789 24.936L42.1409 34.894C42.3836 35.2753 42.6263 35.5873 42.8689 35.83C43.1289 36.0727 43.4669 36.2893 43.8829 36.48V37C43.2069 36.9653 42.4789 36.948 41.6989 36.948C40.9189 36.9307 40.1909 36.922 39.5149 36.922C39.1336 36.922 38.6656 36.9307 38.1109 36.948C37.5563 36.948 36.8543 36.9653 36.0049 37V36.48C36.7676 36.4453 37.2183 36.35 37.3569 36.194C37.4956 36.038 37.4349 35.7433 37.1749 35.31L33.3789 29.07C33.1709 28.706 32.9803 28.4373 32.8069 28.264C32.6509 28.0907 32.4949 27.9693 32.3389 27.9C32.1829 27.8133 31.9749 27.7613 31.7149 27.744V27.224C32.4776 27.1893 33.1796 26.9553 33.8209 26.522C34.4623 26.0887 35.1903 25.3953 36.0049 24.442L37.2269 23.012C37.9203 22.2147 38.3016 21.53 38.3709 20.958C38.4576 20.386 38.3103 19.9353 37.9289 19.606C37.5649 19.2767 37.0449 19.1033 36.3689 19.086V18.592C36.8196 18.6093 37.2529 18.6267 37.6689 18.644C38.0849 18.644 38.5096 18.6527 38.9429 18.67C39.3936 18.67 39.9049 18.67 40.4769 18.67C41.0143 18.67 41.4909 18.6613 41.9069 18.644C42.3229 18.6267 42.6956 18.6093 43.0249 18.592ZM33.7689 18.592V19.112C33.2316 19.1293 32.8243 19.1987 32.5469 19.32C32.2696 19.424 32.0876 19.632 32.0009 19.944C31.9143 20.2387 31.8709 20.7067 31.8709 21.348V34.244C31.8709 34.868 31.9143 35.336 32.0009 35.648C32.1049 35.96 32.2869 36.168 32.5469 36.272C32.8243 36.376 33.2316 36.4453 33.7689 36.48V37C33.2836 36.9653 32.6596 36.948 31.8969 36.948C31.1516 36.9307 30.3976 36.922 29.6349 36.922C28.7509 36.922 27.9189 36.9307 27.1389 36.948C26.3589 36.948 25.7349 36.9653 25.2669 37V36.48C25.8043 36.4453 26.2029 36.376 26.4629 36.272C26.7403 36.168 26.9223 35.96 27.0089 35.648C27.1129 35.336 27.1649 34.868 27.1649 34.244V21.348C27.1649 20.7067 27.1129 20.2387 27.0089 19.944C26.9223 19.632 26.7403 19.424 26.4629 19.32C26.2029 19.1987 25.8043 19.1293 25.2669 19.112V18.592C25.7349 18.6093 26.3589 18.6267 27.1389 18.644C27.9189 18.6613 28.7509 18.67 29.6349 18.67C30.3976 18.67 31.1516 18.6613 31.8969 18.644C32.6596 18.6267 33.2836 18.6093 33.7689 18.592ZM61.7547 18.592V19.112C61.2347 19.1987 60.836 19.3633 60.5587 19.606C60.2814 19.8487 60.0907 20.2213 59.9867 20.724C59.9 21.2267 59.8567 21.9373 59.8567 22.856V37.026C59.6314 36.9913 59.3887 36.974 59.1287 36.974C58.8687 36.974 58.5914 36.9913 58.2967 37.026L46.8827 23.584V32.32C46.8827 33.3773 46.9347 34.192 47.0387 34.764C47.1427 35.3187 47.3767 35.7173 47.7407 35.96C48.1047 36.2027 48.6767 36.376 49.4567 36.48V37C49.1274 36.9653 48.6854 36.948 48.1307 36.948C47.5934 36.9307 47.082 36.922 46.5967 36.922C46.2154 36.922 45.8167 36.9307 45.4007 36.948C45.002 36.948 44.664 36.9653 44.3867 37V36.48C44.9414 36.376 45.3487 36.2113 45.6087 35.986C45.886 35.7433 46.068 35.3707 46.1547 34.868C46.2414 34.348 46.2847 33.6373 46.2847 32.736V21.348C46.2847 20.7067 46.2414 20.2387 46.1547 19.944C46.068 19.632 45.886 19.424 45.6087 19.32C45.3314 19.1987 44.924 19.1293 44.3867 19.112V18.592C44.664 18.6093 45.002 18.6267 45.4007 18.644C45.8167 18.6613 46.2154 18.67 46.5967 18.67C47.03 18.67 47.446 18.6613 47.8447 18.644C48.2434 18.6267 48.6074 18.6093 48.9367 18.592L59.2587 30.396V23.272C59.2587 22.2147 59.2067 21.4087 59.1027 20.854C59.016 20.282 58.7907 19.8747 58.4267 19.632C58.08 19.372 57.4994 19.1987 56.6847 19.112V18.592C57.0314 18.6093 57.4734 18.6267 58.0107 18.644C58.5654 18.6613 59.0767 18.67 59.5447 18.67C59.9607 18.67 60.368 18.6613 60.7667 18.644C61.1654 18.6267 61.4947 18.6093 61.7547 18.592ZM72.0225 18.566L78.3145 34.816C78.5745 35.4227 78.8431 35.8473 79.1205 36.09C79.4151 36.3327 79.6751 36.4627 79.9005 36.48V37C79.3458 36.9653 78.6785 36.948 77.8985 36.948C77.1358 36.9307 76.3558 36.922 75.5585 36.922C74.7265 36.922 73.9378 36.9307 73.1925 36.948C72.4471 36.948 71.8491 36.9653 71.3985 37V36.48C72.2825 36.4453 72.8458 36.298 73.0885 36.038C73.3311 35.7607 73.2791 35.18 72.9325 34.296L68.6165 22.492L69.1365 21.712L65.3405 31.514C64.9418 32.554 64.6991 33.3947 64.6125 34.036C64.5258 34.6773 64.5691 35.1713 64.7425 35.518C64.9158 35.8647 65.1845 36.1073 65.5485 36.246C65.9298 36.3847 66.3805 36.4627 66.9005 36.48V37C66.2938 36.9653 65.7305 36.948 65.2105 36.948C64.7078 36.9307 64.1618 36.922 63.5725 36.922C63.2258 36.922 62.8705 36.9307 62.5065 36.948C62.1598 36.948 61.8565 36.9653 61.5965 37V36.48C61.9778 36.4107 62.3591 36.168 62.7405 35.752C63.1391 35.336 63.5291 34.6167 63.9105 33.594L69.7605 18.566C70.1071 18.6007 70.4798 18.618 70.8785 18.618C71.2945 18.618 71.6758 18.6007 72.0225 18.566ZM73.3745 29.512V30.032H65.6265L65.8865 29.512H73.3745ZM97.4285 18.592V19.112C96.9085 19.1987 96.5098 19.3633 96.2325 19.606C95.9552 19.8487 95.7645 20.2213 95.6605 20.724C95.5738 21.2267 95.5305 21.9373 95.5305 22.856V37.026C95.3052 36.9913 95.0625 36.974 94.8025 36.974C94.5425 36.974 94.2652 36.9913 93.9705 37.026L82.5565 23.584V32.32C82.5565 33.3773 82.6085 34.192 82.7125 34.764C82.8165 35.3187 83.0505 35.7173 83.4145 35.96C83.7785 36.2027 84.3505 36.376 85.1305 36.48V37C84.8012 36.9653 84.3592 36.948 83.8045 36.948C83.2672 36.9307 82.7558 36.922 82.2705 36.922C81.8892 36.922 81.4905 36.9307 81.0745 36.948C80.6758 36.948 80.3378 36.9653 80.0605 37V36.48C80.6152 36.376 81.0225 36.2113 81.2825 35.986C81.5598 35.7433 81.7418 35.3707 81.8285 34.868C81.9152 34.348 81.9585 33.6373 81.9585 32.736V21.348C81.9585 20.7067 81.9152 20.2387 81.8285 19.944C81.7418 19.632 81.5598 19.424 81.2825 19.32C81.0052 19.1987 80.5978 19.1293 80.0605 19.112V18.592C80.3378 18.6093 80.6758 18.6267 81.0745 18.644C81.4905 18.6613 81.8892 18.67 82.2705 18.67C82.7038 18.67 83.1198 18.6613 83.5185 18.644C83.9172 18.6267 84.2812 18.6093 84.6105 18.592L94.9325 30.396V23.272C94.9325 22.2147 94.8805 21.4087 94.7765 20.854C94.6899 20.282 94.4645 19.8747 94.1005 19.632C93.7538 19.372 93.1732 19.1987 92.3585 19.112V18.592C92.7052 18.6093 93.1472 18.6267 93.6845 18.644C94.2392 18.6613 94.7505 18.67 95.2185 18.67C95.6345 18.67 96.0419 18.6613 96.4405 18.644C96.8392 18.6267 97.1685 18.6093 97.4285 18.592ZM107.696 18.566L113.988 34.816C114.248 35.4227 114.517 35.8473 114.794 36.09C115.089 36.3327 115.349 36.4627 115.574 36.48V37C115.02 36.9653 114.352 36.948 113.572 36.948C112.81 36.9307 112.03 36.922 111.232 36.922C110.4 36.922 109.612 36.9307 108.866 36.948C108.121 36.948 107.523 36.9653 107.072 37V36.48C107.956 36.4453 108.52 36.298 108.762 36.038C109.005 35.7607 108.953 35.18 108.606 34.296L104.29 22.492L104.81 21.712L101.014 31.514C100.616 32.554 100.373 33.3947 100.286 34.036C100.2 34.6773 100.243 35.1713 100.416 35.518C100.59 35.8647 100.858 36.1073 101.222 36.246C101.604 36.3847 102.054 36.4627 102.574 36.48V37C101.968 36.9653 101.404 36.948 100.884 36.948C100.382 36.9307 99.8356 36.922 99.2463 36.922C98.8996 36.922 98.5443 36.9307 98.1803 36.948C97.8336 36.948 97.5303 36.9653 97.2703 37V36.48C97.6516 36.4107 98.0329 36.168 98.4143 35.752C98.8129 35.336 99.2029 34.6167 99.5843 33.594L105.434 18.566C105.781 18.6007 106.154 18.618 106.552 18.618C106.968 18.618 107.35 18.6007 107.696 18.566ZM109.048 29.512V30.032H101.3L101.56 29.512H109.048ZM130.188 18.566V19.086C129.807 19.2593 129.399 19.5973 128.966 20.1C128.55 20.5853 128.091 21.322 127.588 22.31L122.778 31.826H121.296L115.212 20.568C114.917 19.996 114.64 19.6147 114.38 19.424C114.12 19.216 113.895 19.112 113.704 19.112V18.566C114.207 18.618 114.727 18.6613 115.264 18.696C115.801 18.7133 116.391 18.722 117.032 18.722C117.864 18.722 118.757 18.7047 119.71 18.67C120.663 18.6353 121.539 18.6007 122.336 18.566V19.112C121.903 19.112 121.504 19.138 121.14 19.19C120.793 19.242 120.542 19.346 120.386 19.502C120.247 19.658 120.265 19.918 120.438 20.282L124.468 28.004L123.454 29.33L125.898 24.442C126.574 23.1073 126.938 22.0587 126.99 21.296C127.059 20.516 126.895 19.9613 126.496 19.632C126.115 19.2853 125.577 19.1033 124.884 19.086V18.566C125.508 18.5833 126.071 18.6007 126.574 18.618C127.094 18.6353 127.64 18.644 128.212 18.644C128.576 18.644 128.931 18.6353 129.278 18.618C129.625 18.6007 129.928 18.5833 130.188 18.566ZM124.832 27.25V34.244C124.832 34.868 124.875 35.336 124.962 35.648C125.066 35.96 125.248 36.168 125.508 36.272C125.785 36.376 126.193 36.4453 126.73 36.48V37C126.245 36.9653 125.603 36.948 124.806 36.948C124.026 36.9307 123.255 36.922 122.492 36.922C121.643 36.922 120.828 36.9307 120.048 36.948C119.285 36.948 118.679 36.9653 118.228 37V36.48C118.765 36.4453 119.164 36.376 119.424 36.272C119.701 36.168 119.883 35.96 119.97 35.648C120.074 35.336 120.126 34.868 120.126 34.244V28.914L122.674 30.526L124.832 27.25ZM138.825 18.566L145.117 34.816C145.377 35.4227 145.646 35.8473 145.923 36.09C146.218 36.3327 146.478 36.4627 146.703 36.48V37C146.149 36.9653 145.481 36.948 144.701 36.948C143.939 36.9307 143.159 36.922 142.361 36.922C141.529 36.922 140.741 36.9307 139.995 36.948C139.25 36.948 138.652 36.9653 138.201 37V36.48C139.085 36.4453 139.649 36.298 139.891 36.038C140.134 35.7607 140.082 35.18 139.735 34.296L135.419 22.492L135.939 21.712L132.143 31.514C131.745 32.554 131.502 33.3947 131.415 34.036C131.329 34.6773 131.372 35.1713 131.545 35.518C131.719 35.8647 131.987 36.1073 132.351 36.246C132.733 36.3847 133.183 36.4627 133.703 36.48V37C133.097 36.9653 132.533 36.948 132.013 36.948C131.511 36.9307 130.965 36.922 130.375 36.922C130.029 36.922 129.673 36.9307 129.309 36.948C128.963 36.948 128.659 36.9653 128.399 37V36.48C128.781 36.4107 129.162 36.168 129.543 35.752C129.942 35.336 130.332 34.6167 130.713 33.594L136.563 18.566C136.91 18.6007 137.283 18.618 137.681 18.618C138.097 18.618 138.479 18.6007 138.825 18.566ZM140.177 29.512V30.032H132.429L132.689 29.512H140.177Z" fill="white"/>
</svg>
